<?xml version="1.0" encoding="UTF-8" standalone="no"?>
<!-- Uploaded to: SVG Repo, www.svgrepo.com, Generator: SVG Repo Mixer Tools -->

<svg
   height="800"
   width="800"
   version="1.1"
   id="Layer_1"
   viewBox="0 0 512 512"
   xml:space="preserve"
   xmlns="http://www.w3.org/2000/svg"
   xmlns:svg="http://www.w3.org/2000/svg"><defs
   id="defs6" />
<g
   id="g6"
   style="fill:#ffffff;fill-opacity:1;stroke:#000000;stroke-width:12.7117;stroke-linejoin:round;stroke-dasharray:none;stroke-opacity:1">
	<g
   id="g5"
   style="fill:#ffffff;fill-opacity:1;stroke:#000000;stroke-width:12.7117;stroke-linejoin:round;stroke-dasharray:none;stroke-opacity:1">
		<g
   id="g4"
   style="fill:#ffffff;fill-opacity:1;stroke:#000000;stroke-width:12.7117;stroke-linejoin:round;stroke-dasharray:none;stroke-opacity:1">
			<path
   style="fill:#ffffff;fill-opacity:1;stroke:#000000;stroke-width:12.7117;stroke-linejoin:round;stroke-dasharray:none;stroke-opacity:1"
   d="m 2.072,127.79 c -1.335,4.946 -2.058,10.14 -2.058,15.502 0,241.727 -0.087,226.177 0.18,229.813 L 157.121,229.27 Z"
   id="path1" />
			<path
   style="fill:#ffffff;fill-opacity:1;stroke:#000000;stroke-width:12.7117;stroke-linejoin:round;stroke-dasharray:none;stroke-opacity:1"
   d="m 255.904,281.128 c -23.968,0 -35.227,-10.26 -66.592,-30.789 L 15.964,409.225 c 10.888,11.717 26.415,19.066 43.633,19.066 h 392.611 c 17.219,0 32.746,-7.35 43.633,-19.066 L 322.495,250.34 c -31.364,20.528 -42.625,30.788 -66.591,30.788 z"
   id="path2" />
			<path
   style="fill:#ffffff;fill-opacity:1;stroke:#000000;stroke-width:12.7117;stroke-linejoin:round;stroke-dasharray:none;stroke-opacity:1"
   d="M 271.397,239.225 489.226,96.655 C 479.052,88.562 466.19,83.709 452.209,83.709 H 59.597 c -13.981,0 -26.842,4.853 -37.018,12.946 l 217.829,142.57 c 9.413,6.16 21.578,6.161 30.989,0 z"
   id="path3" />
			<path
   style="fill:#ffffff;fill-opacity:1;stroke:#000000;stroke-width:12.7117;stroke-linejoin:round;stroke-dasharray:none;stroke-opacity:1"
   d="m 509.734,127.79 -155.05,101.48 156.928,143.835 c 0.092,-1.243 1.556,-232.587 -1.878,-245.315 z"
   id="path4" />
		</g>
	</g>
</g>
</svg>
